<svg width="353" height="368" viewBox="0 0 353 368" fill="none" xmlns="http://www.w3.org/2000/svg">
<circle cx="168" cy="184" r="168" fill="#FF6A45"/>
<mask id="mask0_44_8" style="mask-type:luminance" maskUnits="userSpaceOnUse" x="0" y="16" width="336" height="336">
<circle cx="168" cy="184" r="168" fill="white"/>
</mask>
<g mask="url(#mask0_44_8)">
<path fill-rule="evenodd" clip-rule="evenodd" d="M90 40C96.6274 40 102 45.3726 102 52C102 58.6274 96.6274 64 90 64H41C34.3726 64 29 69.3726 29 76C29 82.6274 34.3726 88 41 88H168C174.627 88 180 82.6274 180 76C180 69.3726 174.627 64 168 64H155L154.999 63.9897C148.604 63.727 143.5 58.4595 143.5 52C143.5 45.5405 148.604 40.273 154.999 40.0103L155 40H211C217.627 40 223 34.6274 223 28C223 21.3726 217.627 16 211 16H55C48.3726 16 43 21.3726 43 28C43 34.6274 48.3726 40 55 40H90ZM286 76C286 69.3726 280.627 64 274 64H269C262.373 64 257 69.3726 257 76C257 82.6274 262.373 88 269 88H274C280.627 88 286 82.6274 286 76Z" fill="#FF9B6B"/>
</g>
<mask id="mask1_44_8" style="mask-type:luminance" maskUnits="userSpaceOnUse" x="0" y="16" width="336" height="336">
<circle cx="168" cy="184" r="168" fill="white"/>
</mask>
<g mask="url(#mask1_44_8)">
<path fill-rule="evenodd" clip-rule="evenodd" d="M197 328C203.627 328 209 333.373 209 340C209 346.627 203.627 352 197 352H148C141.373 352 136 357.373 136 364C136 370.627 141.373 376 148 376H275C281.627 376 287 370.627 287 364C287 357.373 281.627 352 275 352H262L261.999 351.99C255.604 351.727 250.5 346.46 250.5 340C250.5 333.54 255.604 328.273 261.999 328.01L262 328H318C324.627 328 330 322.627 330 316C330 309.373 324.627 304 318 304H162C155.373 304 150 309.373 150 316C150 322.627 155.373 328 162 328H197ZM393 364C393 357.373 387.627 352 381 352H376C369.373 352 364 357.373 364 364C364 370.627 369.373 376 376 376H381C387.627 376 393 370.627 393 364Z" fill="#FF9B6B"/>
</g>
<mask id="mask2_44_8" style="mask-type:luminance" maskUnits="userSpaceOnUse" x="0" y="16" width="336" height="336">
<circle cx="168" cy="184" r="168" fill="white"/>
</mask>
<g mask="url(#mask2_44_8)">
<path fill-rule="evenodd" clip-rule="evenodd" d="M139 88C145.627 88 151 93.3726 151 100C151 106.627 145.627 112 139 112H99C92.3726 112 87 106.627 87 100C87 93.3726 92.3726 88 99 88H139ZM263 184C269.627 184 275 189.373 275 196C275 202.627 269.627 208 263 208H112L111.999 208.01C105.604 208.273 100.5 213.54 100.5 220C100.5 226.46 105.604 231.727 111.999 231.99L112 232H131C137.627 232 143 237.373 143 244C143 250.627 137.627 256 131 256H11C4.37258 256 -1 250.627 -1 244C-1 237.373 4.37258 232 11 232H43C49.6274 232 55 226.627 55 220C55 213.373 49.6274 208 43 208H-21C-27.6274 208 -33 202.627 -33 196C-33 189.373 -27.6274 184 -21 184H263ZM112 292C112 285.373 106.627 280 100 280H80C73.3726 280 68 285.373 68 292C68 298.627 73.3726 304 80 304H100C106.627 304 112 298.627 112 292ZM229 292C229 285.373 223.627 280 217 280H155C148.373 280 143 285.373 143 292C143 298.627 148.373 304 155 304H217C223.627 304 229 298.627 229 292ZM223 244C223 237.373 217.627 232 211 232H191C184.373 232 179 237.373 179 244C179 250.627 184.373 256 191 256H211C217.627 256 223 250.627 223 244ZM360 100C360 93.3726 354.627 88 348 88H308C301.373 88 296 93.3726 296 100C296 106.627 301.373 112 308 112H348C354.627 112 360 106.627 360 100Z" fill="#D04237"/>
</g>
<rect opacity="0.0775757" x="169" width="184" height="368" fill="black"/>
<path fill-rule="evenodd" clip-rule="evenodd" d="M169 345C257.918 345 330 272.918 330 184C330 95.0822 257.918 23 169 23V345Z" fill="#97271E"/>
<mask id="mask3_44_8" style="mask-type:luminance" maskUnits="userSpaceOnUse" x="169" y="23" width="161" height="322">
<path fill-rule="evenodd" clip-rule="evenodd" d="M169 345C257.918 345 330 272.918 330 184C330 95.0822 257.918 23 169 23V345Z" fill="white"/>
</mask>
<g mask="url(#mask3_44_8)">
<circle cx="170" cy="184" r="154" fill="#DC5D1C"/>
<circle cx="170" cy="184" r="79" fill="#F8A053"/>
<circle cx="170" cy="184" r="54" fill="#FFCA79"/>
<circle cx="170" cy="185" r="40" fill="#FFF5C6"/>
</g>
</svg>
